<?xml version="1.0" standalone="no"?>
<!DOCTYPE svg PUBLIC "-//W3C//DTD SVG 20010904//EN"
 "http://www.w3.org/TR/2001/REC-SVG-20010904/DTD/svg10.dtd">
<svg version="1.0" xmlns="http://www.w3.org/2000/svg"
 width="300.000000pt" height="109.000000pt" viewBox="0 0 300.000000 109.000000"
 preserveAspectRatio="xMidYMid meet">

<g transform="translate(0.000000,109.000000) scale(0.100000,-0.100000)"
fill="#000000" stroke="none">
<path d="M0 545 l0 -545 1500 0 1500 0 0 545 0 545 -1500 0 -1500 0 0 -545z
m684 160 c32 -30 36 -91 7 -126 -17 -21 -17 -24 -3 -35 39 -28 7 -141 -48
-169 -41 -21 -242 -21 -260 0 -12 14 -8 83 7 121 4 10 -4 14 -27 14 -29 0 -32
3 -26 23 3 12 6 28 6 35 0 7 13 12 29 12 32 0 35 6 47 98 l7 52 117 0 c110 0
119 -1 144 -25z m775 13 c0 -7 -6 -47 -14 -88 -7 -41 -12 -77 -10 -78 2 -2 23
15 48 37 41 38 48 41 101 41 l57 0 -68 -57 c-37 -31 -69 -58 -71 -58 -1 -1 16
-34 38 -72 22 -39 40 -73 40 -77 0 -3 -20 -6 -45 -6 -43 0 -47 2 -73 45 -15
24 -31 43 -37 41 -5 -1 -14 -21 -19 -44 -10 -42 -10 -42 -54 -42 -39 0 -44 2
-39 20 3 11 18 94 33 185 l28 165 43 0 c28 0 43 -4 42 -12z m330 -89 l36 -96
72 98 c71 96 74 99 112 99 32 0 38 -3 35 -17 -2 -10 -13 -70 -24 -133 -11 -63
-25 -139 -31 -167 l-10 -53 -44 0 -43 0 14 73 c22 111 19 117 -26 54 -63 -87
-94 -86 -126 3 -10 27 -21 47 -24 45 -4 -2 -12 -43 -19 -90 l-13 -85 -44 0
c-24 0 -44 3 -44 8 0 4 14 83 30 177 17 93 30 173 30 178 0 4 18 7 41 5 l41
-3 37 -96z m-815 -10 c43 -33 48 -52 36 -121 -19 -105 -57 -138 -159 -138
-111 0 -143 36 -122 138 13 68 35 101 82 124 48 25 129 24 163 -3z m324 -14
c22 -26 24 -35 18 -83 -14 -121 -56 -162 -167 -162 -53 0 -72 4 -94 22 -26 20
-27 24 -23 93 8 121 60 168 177 162 56 -3 67 -7 89 -32z m957 21 c45 -19 59
-51 51 -110 l-7 -46 -95 0 c-86 0 -95 -2 -92 -17 4 -19 14 -20 121 -7 61 7 67
2 41 -34 -24 -34 -68 -52 -129 -52 -68 0 -112 21 -121 57 -11 41 12 143 38
171 47 50 126 66 193 38z m294 -13 c0 -11 -3 -13 -6 -5 -2 6 -20 12 -38 12
-31 0 -33 -2 -39 -45 l-7 -45 -49 0 c-38 0 -50 -4 -53 -17 -3 -14 -4 -13 -3 2
1 17 9 21 48 23 46 3 47 4 54 40 9 51 10 52 55 52 31 0 39 -4 38 -17z m37 -73
c39 0 44 -2 43 -22 -1 -17 -2 -19 -6 -5 -3 13 -15 17 -49 17 -42 0 -44 1 -43
28 2 23 2 24 6 5 4 -20 11 -23 49 -23z m34 -65 c0 -11 -12 -15 -49 -15 -39 0
-51 -4 -54 -17 -4 -14 -5 -12 -6 5 -1 20 3 22 49 22 28 0 50 5 50 10 0 6 2 10
5 10 3 0 5 -7 5 -15z m-192 -12 c-15 -2 -42 -2 -60 0 -18 2 -6 4 27 4 33 0 48
-2 33 -4z m9 -45 c-3 -8 -6 -5 -6 6 -1 11 2 17 5 13 3 -3 4 -12 1 -19z m73
-23 c0 -23 -4 -25 -45 -25 -25 0 -45 3 -45 8 0 4 18 6 40 4 35 -4 40 -2 40 17
0 12 2 21 5 21 3 0 5 -11 5 -25z"/>
<path d="M496 628 c-12 -45 -8 -48 49 -48 45 0 56 4 65 21 20 36 6 49 -54 49
-47 0 -54 -3 -60 -22z"/>
<path d="M470 491 c0 -11 -3 -26 -6 -35 -5 -14 4 -16 65 -16 61 0 72 3 81 21
21 39 6 49 -70 49 -62 0 -70 -2 -70 -19z"/>
<path d="M837 546 c-8 -8 -18 -32 -22 -52 -9 -50 10 -69 59 -60 38 7 46 22 49
88 2 31 0 33 -34 36 -23 2 -42 -3 -52 -12z"/>
<path d="M1143 552 c-7 -4 -16 -28 -22 -52 -9 -39 -8 -47 7 -58 19 -15 72 -8
84 10 11 19 20 86 13 98 -7 12 -64 13 -82 2z"/>
<path d="M2130 545 c-11 -13 -6 -15 39 -15 39 0 51 4 51 15 0 11 -11 15 -39
15 -22 0 -44 -6 -51 -15z"/>
</g>
</svg>
