<?xml version="1.0" standalone="no"?>
<!DOCTYPE svg PUBLIC "-//W3C//DTD SVG 20010904//EN"
 "http://www.w3.org/TR/2001/REC-SVG-20010904/DTD/svg10.dtd">
<svg version="1.0" xmlns="http://www.w3.org/2000/svg"
 width="836.000000pt" height="615.000000pt" viewBox="0 0 836.000000 615.000000"
 preserveAspectRatio="xMidYMid meet">

<g transform="translate(0.000000,615.000000) scale(0.100000,-0.100000)"
fill="#000000" stroke="none">
<path d="M0 3075 l0 -3075 4180 0 4180 0 0 3075 0 3075 -4180 0 -4180 0 0
-3075z m5343 2886 l42 -40 3 -560 2 -560 -139 -278 -140 -278 0 743 -1 742
-1195 0 -1195 0 0 -1335 0 -1335 -135 0 -135 0 0 1431 0 1431 39 39 39 39
1386 0 1387 0 42 -39z m-564 -509 c19 -9 44 -30 55 -45 20 -27 21 -41 21 -335
0 -291 -1 -309 -20 -342 -43 -74 7 -70 -920 -70 -811 0 -831 1 -863 20 -18 11
-41 34 -52 52 -19 31 -20 47 -18 345 l3 312 30 31 c17 18 39 36 50 40 11 5
394 9 850 9 771 1 832 0 864 -17z m1312 -782 l360 -181 -122 -237 c-467 -909
-841 -1387 -1346 -1725 -385 -258 -847 -405 -1488 -476 -314 -35 -495 -43
-1113 -48 l-602 -5 0 399 0 400 462 7 c1372 20 1856 106 2318 414 361 240 676
666 1059 1430 56 111 103 202 106 202 3 0 167 -81 366 -180z m-2728 -158 c123
-55 186 -199 145 -334 -16 -53 -87 -131 -145 -158 -65 -31 -161 -31 -226 0
-100 47 -164 159 -154 270 17 186 208 298 380 222z m638 12 c104 -31 189 -148
189 -259 0 -55 -28 -130 -66 -173 -103 -121 -286 -129 -396 -17 -56 57 -78
109 -78 188 0 106 42 184 126 233 78 46 139 53 225 28z m666 1 c108 -32 186
-141 186 -260 1 -152 -115 -267 -268 -267 -252 0 -366 312 -173 476 71 61 160
79 255 51z m-1325 -671 c63 -21 122 -74 154 -140 24 -48 26 -63 22 -129 -6
-89 -38 -150 -106 -202 -55 -41 -111 -57 -189 -50 -192 15 -301 224 -207 398
64 116 198 167 326 123z m665 3 c60 -22 117 -72 148 -128 26 -46 30 -64 30
-129 0 -65 -4 -82 -31 -130 -57 -100 -144 -147 -259 -137 -145 11 -244 120
-245 267 0 154 115 268 270 268 30 0 69 -5 87 -11z m-1717 -2379 c138 -26 280
-106 381 -216 194 -213 230 -547 85 -806 -129 -231 -394 -369 -676 -353 -118
7 -191 26 -300 79 -69 33 -101 57 -171 127 -147 147 -203 282 -203 491 -1 92
4 130 23 190 37 121 87 207 168 287 183 181 426 252 693 201z m5370 -9 c248
-62 440 -248 500 -485 25 -95 27 -260 5 -354 -76 -323 -393 -547 -745 -527
-118 7 -191 26 -299 78 -70 33 -100 55 -176 132 -75 75 -100 108 -133 177
-213 439 66 941 556 1000 87 10 198 2 292 -21z m-1144 -664 c156 -369 284
-671 284 -672 0 -2 -92 -3 -203 -3 l-204 0 -48 120 -49 120 -252 0 -252 0 -48
-120 -48 -120 -198 0 c-109 0 -198 2 -198 4 0 6 549 1305 562 1329 8 16 25 17
189 15 l181 -3 284 -670z m-6096 415 l0 -250 235 0 235 0 0 250 0 250 190 0
190 0 0 -670 0 -670 -190 0 -190 0 0 250 0 250 -235 0 -235 0 0 -250 0 -250
-185 0 -185 0 0 670 0 670 185 0 185 0 0 -250z m3356 235 c122 -21 217 -68
284 -141 60 -67 83 -109 100 -185 18 -81 9 -230 -19 -302 -29 -73 -112 -165
-185 -203 l-54 -28 72 -106 c40 -58 112 -162 160 -232 l87 -128 -219 0 -219 0
-133 200 -133 200 -78 0 -79 0 0 -200 0 -200 -190 0 -190 0 0 670 0 670 354 0
c270 0 374 -4 442 -15z m1369 -18 c101 -33 156 -68 222 -140 73 -80 95 -144
101 -284 3 -95 1 -121 -17 -176 -42 -124 -111 -201 -236 -263 -98 -47 -190
-64 -356 -64 l-139 0 0 -190 0 -190 -190 0 -190 0 0 671 0 671 363 -4 c361 -4
362 -4 442 -31z"/>
<path d="M3250 5070 l0 -130 665 0 665 0 0 130 0 130 -665 0 -665 0 0 -130z"/>
<path d="M5781 4357 c-168 -322 -352 -621 -509 -827 -121 -159 -384 -422 -509
-510 -239 -168 -452 -262 -766 -340 -375 -93 -807 -134 -1539 -146 l-408 -7 0
-130 0 -130 383 7 c375 6 777 25 986 46 958 97 1539 390 2030 1024 176 227
347 498 523 827 l105 196 -114 57 c-62 31 -114 56 -116 56 -1 0 -31 -55 -66
-123z"/>
<path d="M1990 1124 c-105 -48 -168 -133 -191 -258 -40 -214 109 -414 313
-419 82 -2 140 15 208 62 46 31 62 51 95 116 38 73 40 83 40 164 0 152 -68
272 -190 331 -75 37 -200 39 -275 4z"/>
<path d="M7355 1137 c-91 -37 -150 -93 -192 -182 -24 -53 -28 -72 -28 -155 0
-83 4 -103 28 -156 119 -256 469 -265 596 -15 68 133 37 326 -68 428 -68 65
-122 87 -221 90 -50 1 -98 -3 -115 -10z"/>
<path d="M5974 846 l-71 -181 135 -3 c74 -1 137 0 139 2 3 3 -26 85 -63 184
l-69 178 -71 -180z"/>
<path d="M3360 985 l0 -157 158 4 c177 4 216 15 252 73 26 42 27 119 1 161
-34 56 -77 69 -253 72 l-158 3 0 -156z"/>
<path d="M4720 981 l0 -171 118 0 c102 0 123 3 162 23 73 37 104 99 89 181 -9
50 -36 86 -85 111 -31 16 -63 21 -161 23 l-123 4 0 -171z"/>
</g>
</svg>
